<svg xmlns="http://www.w3.org/2000/svg" width="15" height="15" viewBox="0 0 15 15" fill="none"><path d="M14.1329 0H0.367089C0.16519 0 0 0.16519 0 0.367089V14.1329C0 14.3348 0.16519 14.5 0.367089 14.5H14.1329C14.3348 14.5 14.5 14.3348 14.5 14.1329V0.367089C14.5 0.16519 14.3348 0 14.1329 0ZM13.7658 13.7658H0.734177V0.734177H13.7658V13.7658Z" fill="#343B42"></path><path d="M10.9275 6.83218L7.09003 3.07189C6.99253 2.97438 6.83252 2.97689 6.73752 3.07439C6.64002 3.1719 6.64252 3.33191 6.74002 3.42692L10.1275 6.74967H3.25C3.1125 6.74967 3 6.86218 3 6.99969C3 7.1372 3.1125 7.24971 3.25 7.24971H10.1475L6.76001 10.5725C6.66251 10.67 6.66001 10.8275 6.75751 10.925C6.80751 10.975 6.87 11 6.935 11C7 11 7.06252 10.975 7.11002 10.9275L10.925 7.18721C10.9725 7.1397 11 7.0747 11 7.00969C11 6.94469 10.9725 6.87718 10.925 6.83218H10.9275Z" fill="#343B42"></path></svg>