<svg xmlns="http://www.w3.org/2000/svg" width="15" height="15" viewBox="0 0 15 15" fill="none"><path d="M7.67268 7.32434L12.0006 2.99637C12.1438 2.8532 12.1438 2.62194 12.0006 2.47877C11.8575 2.33561 11.6262 2.33561 11.4831 2.47877L7.1551 6.80675L2.82711 2.47877C2.68394 2.33561 2.45269 2.33561 2.30952 2.47877C2.16636 2.62194 2.16636 2.8532 2.30952 2.99637L6.63749 7.32434L2.30952 11.6523C2.16636 11.7955 2.16636 12.0267 2.30952 12.1699C2.38294 12.2433 2.4747 12.2764 2.57014 12.2764C2.66558 12.2764 2.75736 12.2397 2.83078 12.1699L7.15875 7.84193L11.4867 12.1699C11.5602 12.2433 11.6519 12.2764 11.7474 12.2764C11.8428 12.2764 11.9346 12.2397 12.008 12.1699C12.1512 12.0267 12.1512 11.7955 12.008 11.6523L7.68003 7.32434H7.67268Z" fill="#343B42"></path><path d="M14.1329 0H0.367089C0.16519 0 0 0.16519 0 0.367089V14.1329C0 14.3348 0.16519 14.5 0.367089 14.5H14.1329C14.3348 14.5 14.5 14.3348 14.5 14.1329V0.367089C14.5 0.16519 14.3348 0 14.1329 0ZM13.7658 13.7658H0.734177V0.734177H13.7658V13.7658Z" fill="#343B42"></path></svg>