<svg xmlns="http://www.w3.org/2000/svg" width="22" height="22" viewBox="0 0 22 22" fill="none"><path d="M15.2021 0.849609C15.8337 0.849645 16.4819 0.953192 17.123 1.16504H17.1221C19.1878 1.83675 20.643 3.57285 21.0371 5.8125H21.0469L21.0664 5.93945C21.4576 8.46573 20.7806 13.6439 12.1338 20.4512L11.4404 21L11.4395 21.001C11.3111 21.1007 11.1554 21.1504 11.001 21.1504C10.8465 21.1504 10.6909 21.1007 10.5625 21.001L10.5615 21L9.86719 20.4521C1.21492 13.6393 0.538481 8.46505 0.935547 5.93848C1.3018 3.63814 2.76954 1.84943 4.87988 1.16504L5.12012 1.0918C5.68126 0.933109 6.24637 0.849637 6.7998 0.849609C8.63598 0.849609 10.0451 1.71282 11.001 2.59668C11.9569 1.71283 13.366 0.849609 15.2021 0.849609Z" fill="#570122" stroke="#570122" stroke-width="0.3"></path></svg>