<svg xmlns="http://www.w3.org/2000/svg" width="16" height="16" viewBox="0 0 16 16" fill="none"><path d="M3.38515 7.92359H7.09756V11.636C7.09756 11.8454 7.2689 12.0168 7.47832 12.0168C7.68774 12.0168 7.85908 11.8454 7.85908 11.636V7.92359H11.5715C11.7809 7.92359 11.9522 7.75225 11.9522 7.54283C11.9522 7.33342 11.7809 7.16207 11.5715 7.16207H7.85908V3.44967C7.85908 3.24025 7.68774 3.06891 7.47832 3.06891C7.2689 3.06891 7.09756 3.24025 7.09756 3.44967V7.16207H3.38515C3.17574 7.16207 3.00439 7.33342 3.00439 7.54283C3.00439 7.75225 3.17574 7.92359 3.38515 7.92359Z" fill="#343B42"></path><path d="M14.6592 0H0.38076C0.171342 0 0 0.171342 0 0.38076V14.6592C0 14.8687 0.171342 15.04 0.38076 15.04H14.6592C14.8687 15.04 15.04 14.8687 15.04 14.6592V0.38076C15.04 0.171342 14.8687 0 14.6592 0ZM14.2785 14.2785H0.761519V0.761519H14.2785V14.2785Z" fill="#343B42"></path></svg>