<svg xmlns="http://www.w3.org/2000/svg" width="19" height="24" viewBox="0 0 19 24" fill="none"><path d="M9.5 0.849609C12.4427 0.849609 14.8299 3.2712 14.8301 6.24805C14.8301 8.03036 13.9725 9.60904 12.6533 10.5938C13.2014 10.7292 13.8262 10.9314 14.4551 11.25L14.7734 11.4209C15.5231 11.8484 16.31 12.4747 16.9355 13.3887C17.6512 14.4343 18.1504 15.8483 18.1504 17.752V22.4619C18.1503 22.8389 17.8456 23.1504 17.4688 23.1504C17.0919 23.1504 16.7872 22.8389 16.7871 22.4619V17.752C16.7871 15.3887 15.9121 13.6915 14.1963 12.6748L13.8418 12.4814C13.094 12.1026 12.3389 11.9094 11.7695 11.8115C11.4853 11.7627 11.2484 11.7374 11.083 11.7246C11.0003 11.7182 10.9353 11.7146 10.8916 11.7129C10.8701 11.712 10.8537 11.7122 10.8428 11.7119C10.8373 11.7118 10.8327 11.711 10.8301 11.7109H8.17188C8.17225 11.7109 8.07547 11.7121 7.90625 11.7256C7.73715 11.7391 7.49623 11.7652 7.20898 11.8154C6.70569 11.9034 6.06201 12.0651 5.4082 12.3613L5.12695 12.4971C3.19864 13.4846 2.21289 15.2415 2.21289 17.752V22.4619C2.21278 22.8389 1.90807 23.1504 1.53125 23.1504C1.15443 23.1504 0.84972 22.8389 0.849609 22.4619V17.752C0.849609 15.8483 1.3488 14.4343 2.06445 13.3887C2.77926 12.3443 3.70486 11.6756 4.54492 11.25L4.82812 11.1133C5.35909 10.8712 5.8796 10.7088 6.34473 10.5938C5.02621 9.61256 4.16992 8.02927 4.16992 6.24805C4.17008 3.2712 6.55728 0.849609 9.5 0.849609ZM9.5 2.22656C7.31636 2.22656 5.53337 4.03065 5.5332 6.24805C5.5332 8.46558 7.31626 10.2705 9.5 10.2705C11.6837 10.2705 13.4668 8.46558 13.4668 6.24805C13.4666 4.03065 11.6836 2.22656 9.5 2.22656Z" fill="#570122" stroke="#570122" stroke-width="0.3"></path></svg>