<svg xmlns="http://www.w3.org/2000/svg" width="25" height="25" viewBox="0 0 25 25" fill="none"><path d="M22.58 8.25H2.57996C1.8896 8.25 1.32996 8.80964 1.32996 9.5V22.5C1.32996 23.1904 1.8896 23.75 2.57996 23.75H22.58C23.2703 23.75 23.83 23.1904 23.83 22.5V9.5C23.83 8.80964 23.2703 8.25 22.58 8.25Z" stroke="#570122" stroke-width="1.5"></path><path d="M12.1701 20.5093C11.528 20.5093 10.9812 20.3346 10.5295 19.9852C10.0777 19.6329 9.73258 19.123 9.49394 18.4553C9.2553 17.7849 9.13599 16.9752 9.13599 16.0264C9.13599 15.0832 9.2553 14.2778 9.49394 13.6102C9.73542 12.9397 10.082 12.4284 10.5337 12.0761C10.9883 11.721 11.5337 11.5434 12.1701 11.5434C12.8064 11.5434 13.3505 11.721 13.8022 12.0761C14.2567 12.4284 14.6033 12.9397 14.842 13.6102C15.0834 14.2778 15.2042 15.0832 15.2042 16.0264C15.2042 16.9752 15.0849 17.7849 14.8462 18.4553C14.6076 19.123 14.2624 19.6329 13.8107 19.9852C13.359 20.3346 12.8121 20.5093 12.1701 20.5093ZM12.1701 19.5718C12.8064 19.5718 13.3008 19.265 13.653 18.6514C14.0053 18.0377 14.1814 17.1627 14.1814 16.0264C14.1814 15.2707 14.1005 14.6272 13.9385 14.096C13.7795 13.5647 13.5493 13.1599 13.2482 12.8815C12.9499 12.6031 12.5905 12.4639 12.1701 12.4639C11.5394 12.4639 11.0465 12.7749 10.6914 13.3971C10.3363 14.0164 10.1587 14.8928 10.1587 16.0264C10.1587 16.782 10.2383 17.4241 10.3974 17.9525C10.5564 18.4809 10.7851 18.8829 11.0834 19.1585C11.3846 19.434 11.7468 19.5718 12.1701 19.5718Z" fill="#570122"></path><path d="M7.57996 8.5C7.57996 8.5 8.04625 1.5 11.3133 1.5C14.5804 1.5 14.58 8.5 14.58 8.5" stroke="#570122" stroke-width="1.5"></path><path d="M10.58 8.5C10.58 8.5 11.0463 1.5 14.3133 1.5C17.5804 1.5 17.58 8.5 17.58 8.5" stroke="#570122" stroke-width="1.5"></path></svg>