<svg xmlns="http://www.w3.org/2000/svg" width="17" height="17" viewBox="0 0 17 17" fill="none"><path d="M0.5 8.92993C0.5 4.51165 4.08172 0.929932 8.5 0.929932C12.9183 0.929932 16.5 4.51165 16.5 8.92993C16.5 13.1803 13.1854 16.6565 9 16.9146V11.1799H10.75C11.1642 11.1799 11.5 10.8441 11.5 10.4299C11.5 10.0157 11.1642 9.67993 10.75 9.67993H9V7.67993C9 7.54861 9.02587 7.41857 9.07612 7.29725C9.12638 7.17592 9.20003 7.06568 9.29289 6.97283C9.38575 6.87997 9.49599 6.80631 9.61732 6.75605C9.73864 6.7058 9.86868 6.67993 10 6.67993H10.75C11.1642 6.67993 11.5 6.34415 11.5 5.92993C11.5 5.51572 11.1642 5.17993 10.75 5.17993H10C9.6717 5.17993 9.34661 5.2446 9.04329 5.37023C8.73998 5.49587 8.46438 5.68002 8.23223 5.91216C8.00009 6.14431 7.81594 6.41991 7.6903 6.72322C7.56466 7.02654 7.5 7.35163 7.5 7.67993V9.67993H6.25C5.83579 9.67993 5.5 10.0157 5.5 10.4299C5.5 10.8441 5.83579 11.1799 6.25 11.1799H7.5V16.868C3.55369 16.3759 0.5 13.0095 0.5 8.92993Z" fill="#570122"></path></svg>