<svg xmlns="http://www.w3.org/2000/svg" width="25" height="26" viewBox="0 0 25 26" fill="none"><path d="M17.6219 0.849609C18.3767 0.849609 19.1513 0.973294 19.9178 1.22656H19.9169C22.3921 2.03144 24.1367 4.11527 24.6014 6.80469H24.6112L24.6307 6.93164C25.0981 9.94908 24.2938 16.1547 13.9227 24.3193L13.9218 24.3184L13.0907 24.9766L13.0897 24.9775C12.9412 25.0931 12.7601 25.1504 12.5809 25.1504C12.4019 25.1504 12.2216 25.0929 12.0731 24.9775L12.0721 24.9766L11.2401 24.3193L10.2948 23.5586C0.813403 15.7634 0.072723 9.8552 0.532104 6.93164V6.93066L0.577026 6.6748C1.08041 4.04851 2.80293 2.01856 5.245 1.22656H5.24597L5.53308 1.13965C6.20391 0.949996 6.87894 0.849622 7.53992 0.849609C9.74636 0.849609 11.437 1.89303 12.5809 2.95703C13.7248 1.893 15.4155 0.849671 17.6219 0.849609ZM17.6219 2.49902C15.7223 2.49909 14.2853 3.53044 13.3661 4.48828L13.1893 4.67871C13.0336 4.8509 12.8116 4.94922 12.5809 4.94922C12.3504 4.94917 12.1292 4.85077 11.9735 4.67871V4.67969C11.0591 3.67904 9.56593 2.49902 7.53992 2.49902C7.03201 2.49904 6.50774 2.57405 5.98035 2.72461L5.75378 2.79395C3.95842 3.37415 2.66181 4.85384 2.23132 6.79785L2.1571 7.19238C1.75246 9.77071 2.47491 15.328 12.2577 23.0293L12.5809 23.2842L12.9042 23.0293L13.7958 22.3135C22.7308 14.9842 23.3966 9.69132 23.0048 7.19336L22.9296 6.79785C22.5233 4.98409 21.3721 3.5789 19.7606 2.92285L19.4081 2.79395C18.8045 2.59712 18.2025 2.49902 17.6219 2.49902Z" fill="#570122" stroke="#570122" stroke-width="0.3"></path></svg>