<svg xmlns="http://www.w3.org/2000/svg" width="15" height="16" viewBox="0 0 15 16" fill="none"><path d="M7.4256 6.18116C7.72092 6.17139 8.01526 6.21988 8.29183 6.32387C8.56841 6.42786 8.82179 6.5853 9.03752 6.78721C9.25324 6.98912 9.42709 7.23154 9.54912 7.50063C9.67116 7.76973 9.739 8.06022 9.74877 8.35554C9.75854 8.65085 9.71005 8.9452 9.60606 9.22177C9.50208 9.49834 9.34464 9.75172 9.14272 9.96745C8.94082 10.1832 8.69839 10.357 8.4293 10.4791C8.1602 10.6011 7.86971 10.6689 7.57439 10.6787C7.27908 10.6885 6.98474 10.64 6.70817 10.536C6.43159 10.432 6.17821 10.2746 5.96248 10.0727C5.74676 9.87075 5.57291 9.62832 5.45088 9.35923C5.32884 9.09014 5.261 8.79964 5.25123 8.50433C5.24146 8.20901 5.28995 7.91467 5.39394 7.6381C5.49792 7.36152 5.65537 7.10814 5.85727 6.89242C6.05918 6.67669 6.30161 6.50285 6.5707 6.38081C6.8398 6.25877 7.13029 6.19093 7.4256 6.18116Z" fill="#570122"></path><path fill-rule="evenodd" clip-rule="evenodd" d="M8.64817 0.929932H6.35183C5.38335 0.929925 4.60999 0.92992 3.98574 0.981762C3.34539 1.03494 2.79505 1.14652 2.29086 1.40843C1.51463 1.81165 0.881715 2.44456 0.478494 3.22079C0.216589 3.72498 0.105008 4.27533 0.0518302 4.91567C-1.1187e-05 5.53992 -6.15803e-06 6.31327 1.38352e-07 7.28174V9.5781C-6.15801e-06 10.5466 -1.12951e-05 11.3199 0.0518302 11.9442C0.105008 12.5845 0.216589 13.1349 0.478494 13.6391C0.881715 14.4153 1.51463 15.0482 2.29086 15.4514C2.79505 15.7133 3.34539 15.8249 3.98574 15.8781C4.60998 15.9299 5.38331 15.9299 6.35176 15.9299H8.64817C9.61662 15.9299 10.39 15.9299 11.0143 15.8781C11.6546 15.8249 12.205 15.7133 12.7091 15.4514C13.4854 15.0482 14.1183 14.4153 14.5215 13.6391C14.7834 13.1349 14.895 12.5845 14.9482 11.9442C15 11.32 15 10.5466 15 9.57817V7.28176C15 6.3133 15 5.53991 14.9482 4.91567C14.895 4.27533 14.7834 3.72498 14.5215 3.22079C14.1183 2.44456 13.4854 1.81165 12.7091 1.40843C12.205 1.14652 11.6546 1.03494 11.0143 0.981762C10.39 0.92992 9.61665 0.929925 8.64817 0.929932ZM8.81973 4.91983C8.35877 4.74652 7.8682 4.6657 7.37601 4.68198C6.88382 4.69827 6.39966 4.81133 5.95117 5.01473C5.50268 5.21812 5.09864 5.50786 4.76212 5.86741C4.42561 6.22695 4.16321 6.64925 3.9899 7.11021C3.81659 7.57116 3.73577 8.06174 3.75205 8.55392C3.76833 9.04611 3.8814 9.53027 4.0848 9.97876C4.28819 10.4273 4.57793 10.8313 4.93747 11.1678C5.29702 11.5043 5.71932 11.7667 6.18027 11.94C6.64123 12.1133 7.1318 12.1942 7.62399 12.1779C8.11618 12.1616 8.60034 12.0485 9.04883 11.8451C9.49732 11.6417 9.90136 11.352 10.2379 10.9925C10.5744 10.6329 10.8368 10.2106 11.0101 9.74966C11.1834 9.2887 11.2642 8.79813 11.2479 8.30594C11.2317 7.81375 11.1186 7.32959 10.9152 6.8811C10.7118 6.43261 10.4221 6.02857 10.0625 5.69206C9.70298 5.35554 9.28068 5.09314 8.81973 4.91983ZM11.25 3.92993C11.6642 3.92993 12 4.26572 12 4.67993C12 5.09415 11.6642 5.42993 11.25 5.42993H11.24C10.8258 5.42993 10.49 5.09415 10.49 4.67993C10.49 4.26572 10.8258 3.92993 11.24 3.92993H11.25Z" fill="#570122"></path></svg>