<svg xmlns="http://www.w3.org/2000/svg" width="15" height="14" viewBox="0 0 15 14" fill="none"><path d="M14.021 1.01035L1.17691 5.96435C0.300279 6.31607 0.305478 6.80502 1.01712 7.02304L4.22049 8.02288L5.44617 11.7807C5.59518 12.192 5.52172 12.3551 5.95362 12.3551C6.28693 12.3551 6.4348 12.2032 6.62044 12.0218C6.73849 11.9063 7.4394 11.2249 8.22202 10.4639L11.5541 12.9258C12.1673 13.2641 12.61 13.0889 12.7627 12.3564L14.9499 2.04915C15.1739 1.15134 14.6077 0.744098 14.021 1.01035ZM4.72322 7.79317L11.9436 3.23777C12.3041 3.01917 12.6346 3.1367 12.3632 3.37757L6.18066 8.9558L5.93994 11.5234L4.72322 7.79317Z" fill="#570122"></path></svg>