<svg xmlns="http://www.w3.org/2000/svg" width="14" height="16" viewBox="0 0 14 16" fill="none"><path d="M5.2727 12.9458C6.48254 12.9458 7.46331 12.0797 7.46331 10.7552V0.929932H10.0905C9.94311 2.72179 11.7244 4.45269 13.6888 4.4131V6.88351C12.0088 6.88351 10.5802 6.17314 10.083 5.7789V10.7552C10.083 12.9458 8.35968 15.4299 5.2727 15.4299C2.18571 15.4299 0.5 12.9458 0.5 10.7552C0.5 7.66338 3.77196 5.87023 5.93904 6.3085V8.82476C5.83003 8.78619 5.54888 8.72918 5.30942 8.72918C4.08953 8.6842 3.08209 9.67361 3.08209 10.7552C3.08209 11.9651 4.06286 12.9458 5.2727 12.9458Z" fill="#570122"></path></svg>