<svg xmlns="http://www.w3.org/2000/svg" width="15" height="12" viewBox="0 0 15 12" fill="none"><path d="M7.75 0.929932C7.76356 0.929932 12.2891 0.930525 13.4229 1.24048C14.0439 1.40769 14.534 1.89771 14.7012 2.5188C15.0099 3.64715 15.0001 5.99134 15 6.01782C15 6.01782 14.9998 8.37143 14.7012 9.5061C14.5338 10.127 14.0438 10.6163 13.4229 10.7834C12.2892 11.0815 7.76356 11.0823 7.75 11.0823C7.75 11.0823 3.22279 11.0823 2.07617 10.7717C1.45528 10.6044 0.966007 10.1144 0.798828 9.49341C0.500295 8.37058 0.5 6.0061 0.5 6.0061C0.5 6.00427 0.500411 3.65312 0.798828 2.5188C0.966001 1.89787 1.46724 1.3961 2.07617 1.22876C3.21085 0.930161 7.75 0.929932 7.75 0.929932ZM6.30469 8.09692L10.0791 5.9231L6.30469 3.74927V8.09692Z" fill="#570122"></path></svg>