<svg xmlns="http://www.w3.org/2000/svg" width="867" height="1259" viewBox="0 0 867 1259" fill="none"><path d="M802.042 602.808C741.722 498.712 678.458 394.444 615.764 292.204C613.736 288.964 611.782 285.724 609.853 282.509C609.68 282.237 609.482 281.965 609.309 281.668C592.788 254.785 576.242 228 559.895 201.414C526.186 146.732 492.477 91.9768 459.039 37.1221L435.569 0L410.269 35.4651L409.527 36.578C375.917 91.6305 342.01 146.485 308.127 201.34C227.972 331.205 145.023 465.399 67.5385 599.568C6.00631 705.889 -13.4822 823.438 11.0021 939.726C49.707 1123.06 231.187 1258.27 435.841 1258.27C439.823 1258.27 443.78 1258.17 447.762 1258.1C653.43 1252.83 830.854 1107.83 860.606 920.806C878.512 808.03 858.751 701.091 802.042 602.832V602.808ZM795.117 671.512C795.117 671.512 795.117 671.537 795.117 671.561C774.318 674.529 753.642 678.833 733.412 684.546C679.868 699.706 630.652 724.536 587.718 756.44L587.669 756.391C544.265 716.598 499.204 679.179 458.545 645.371C448.207 636.789 437.671 628.38 427.235 619.872C386.23 586.707 347.525 555.397 315.027 516.148C283.915 478.556 268.285 444.748 265.886 409.852C262.374 358.781 279.092 311.494 313.074 276.771C347.624 241.405 395.455 223.4 447.91 225.602C499.896 228 548.395 256.368 578.221 301.8C578.394 302.072 578.592 302.344 578.765 302.64C580.348 305.138 581.906 307.636 583.39 310.208C609.061 354.453 613.686 407.28 595.583 453.182C579.878 492.999 551.437 523.914 525.765 548.967C511.718 562.446 497.423 575.38 482.164 589.057C476.896 593.756 471.554 598.579 466.187 603.376L495.098 627.119C498.981 623.508 502.938 619.996 506.821 616.583C522.328 602.634 536.919 589.527 551.511 575.405C580.051 547.706 611.633 513.156 629.91 466.71C637.379 447.765 641.732 427.931 642.944 407.774C685.977 478.606 728.737 550.105 769.94 621.381C779.462 637.828 787.846 654.546 795.068 671.537L795.117 671.512ZM591.922 810.973C630.701 848.293 655.458 893.527 665.524 945.365C688.994 1067.27 606.316 1191.12 484.958 1215.68C474.052 1217.91 463.17 1219.37 452.362 1220.11V1082.13C451.991 977.12 503.581 876.364 585.913 805.31C587.965 807.115 589.944 809.069 591.922 810.973ZM284.261 807.585C365.059 878.515 415.512 978.282 415.141 1082.2V1219.93C373.765 1216.6 334.244 1202.57 299.793 1178.46C246.768 1141.34 212.144 1084.73 202.35 1019.06C192.384 952.562 210.932 890.881 257.477 835.557C264.105 827.84 273.379 818.17 284.237 807.61L284.261 807.585ZM434.085 67.2452C462.156 113.147 490.325 159.049 518.593 204.852C496.805 195.429 473.532 189.889 449.592 188.776C412.915 187.119 378.192 193.846 347.253 208.067C376.263 161.151 405.248 114.235 434.061 67.2204L434.085 67.2452ZM228.591 401.295C228.591 404.98 228.764 408.689 229.06 412.473C232.028 455.432 250.305 495.868 286.611 539.742C315.25 574.292 348.662 603.376 382.198 630.903L388.752 636.269C393.921 640.424 398.991 644.48 404.086 648.635C414.424 656.945 424.687 665.354 434.926 673.861C474.002 706.285 517.134 742.121 558.683 779.886C558.683 779.886 558.733 779.91 558.733 779.935C500.589 831.08 456.814 896.05 433.739 967.079C411.035 897.113 368.225 833.034 311.367 782.235C311.367 782.235 311.417 782.21 311.417 782.186C345.126 751.42 384.103 718.453 406.905 699.162L377.895 675.246C344.829 703.317 310.947 732.5 282.679 758.542H282.58C282.58 758.542 282.555 758.542 282.53 758.592C238.928 725.674 188.748 700.052 134.017 684.57C113.885 678.882 93.2841 674.579 72.559 671.636C80.2258 653.631 89.1786 635.725 99.4175 618.092C141.263 545.678 184.766 473.189 228.541 401.344L228.591 401.295ZM47.2091 932.059C30.9605 855.218 35.0165 779.861 59.204 707.101C81.0667 709.796 102.806 714.1 124.001 720.11C172.178 733.737 216.348 756.045 255.177 784.387C244.74 794.651 235.936 803.925 229.234 811.814C175.566 875.449 154.149 947.121 165.772 1024.51C174.28 1080.94 198.566 1131.54 235.862 1171.44C140.373 1120.54 68.874 1034.65 47.1844 932.034L47.2091 932.059ZM824.103 914.97C806.741 1024.31 733.313 1117.79 632.927 1171.81C689.538 1110.57 718.276 1024.04 701.731 938.341C690.28 878.862 661.913 827.049 617.495 784.288C616.728 783.595 616.036 782.928 615.269 782.235C653.38 754.907 696.537 733.39 743.478 720.11C764.747 714.075 786.56 709.772 808.472 707.076C830.261 773.208 835.528 842.753 824.078 914.97H824.103Z" fill="#FAFAFA"></path></svg>