<svg width="22" height="22" viewBox="0 0 22 22" fill="none" xmlns="http://www.w3.org/2000/svg">
<path d="M15.2021 0.849609C15.8337 0.849645 16.4819 0.953192 17.123 1.16504H17.1221C19.1878 1.83675 20.643 3.57285 21.0371 5.8125H21.0469L21.0664 5.93945C21.4576 8.46573 20.7806 13.6439 12.1338 20.4512L11.4404 21L11.4395 21.001C11.3111 21.1007 11.1554 21.1504 11.001 21.1504C10.8465 21.1504 10.6909 21.1007 10.5625 21.001L10.5615 21L9.86719 20.4521C1.21492 13.6393 0.538481 8.46505 0.935547 5.93848C1.3018 3.63814 2.76954 1.84943 4.87988 1.16504L5.12012 1.0918C5.68126 0.933109 6.24637 0.849637 6.7998 0.849609C8.63598 0.849609 10.0451 1.71282 11.001 2.59668C11.9569 1.71283 13.366 0.849609 15.2021 0.849609ZM15.2021 2.27441C13.5238 2.27441 12.2798 3.24605 11.5264 4.08203C11.3919 4.23071 11.2003 4.3164 11.001 4.31641C10.8017 4.31641 10.6101 4.23072 10.4756 4.08203C9.71552 3.25052 8.4773 2.27441 6.7998 2.27441C6.4391 2.27444 6.06838 2.32043 5.69434 2.41211L5.31934 2.51855C3.73332 3.03111 2.61625 4.39142 2.33887 6.16406C2.01406 8.23367 2.56223 12.6372 10.0049 18.7422L10.7471 19.3379L11.001 19.5381L11.2549 19.3379C19.4024 12.9239 19.9982 8.30166 19.6631 6.16504L19.6006 5.83691C19.2396 4.2254 18.1697 3.00427 16.6826 2.51855C16.1821 2.35532 15.683 2.27445 15.2021 2.27441Z" fill="#570122" stroke="#570122" stroke-width="0.3"/>
</svg>
